name rise49.8558peak67.6521fall70.3087.mot
datacolumns 19
datarows 18
range 0.92833300000000 0.95666700000000
endheader
time	ground_force1_vx	ground_force1_vy	ground_force1_vz	ground_force1_px	ground_force1_py	ground_force1_pz	ground_force2_vx	ground_force2_vy	ground_force2_vz	ground_force2_px	ground_force2_py	ground_force2_pz	ground_torque1_x	ground_torque1_y	ground_torque1_z	ground_torque2_x	ground_torque2_y	ground_torque2_z	
0.92833300000000	57.42524800000000	725.77132400000005	61.60926100000000	0.32585200000000	0.00000000000000	0.11592600000000	0.00000000000000	0.00000000000000	0.00000000000000	0.00000000000000	0.00000000000000	0.00000000000000	0.00000000000000	25.84266900000000	0.00000000000000	0.00000000000000	0.00000000000000	0.00000000000000	
0.92999400000000	56.74552400000000	728.64522299999999	61.89162300000000	0.32499100000000	0.00000000000000	0.11593800000000	0.00000000000000	0.00000000000000	0.00000000000000	0.00000000000000	0.00000000000000	0.00000000000000	0.00000000000000	26.03649500000000	0.00000000000000	0.00000000000000	0.00000000000000	0.00000000000000	
0.93166600000000	56.07533500000000	731.45091700000000	62.16844800000000	0.32415800000000	0.00000000000000	0.11594900000000	0.00000000000000	0.00000000000000	0.00000000000000	0.00000000000000	0.00000000000000	0.00000000000000	0.00000000000000	26.22592400000000	0.00000000000000	0.00000000000000	0.00000000000000	0.00000000000000	
0.93333100000000	55.41477100000000	734.18605600000001	62.43931000000000	0.32334800000000	0.00000000000000	0.11596000000000	0.00000000000000	0.00000000000000	0.00000000000000	0.00000000000000	0.00000000000000	0.00000000000000	0.00000000000000	26.41063700000000	0.00000000000000	0.00000000000000	0.00000000000000	0.00000000000000	
0.93499600000000	54.76383500000000	736.84827700000005	62.70373200000000	0.32256100000000	0.00000000000000	0.11597100000000	0.00000000000000	0.00000000000000	0.00000000000000	0.00000000000000	0.00000000000000	0.00000000000000	0.00000000000000	26.59029400000000	0.00000000000000	0.00000000000000	0.00000000000000	0.00000000000000	
0.93665900000000	54.12245000000000	739.43521799999996	62.96119000000000	0.32179400000000	0.00000000000000	0.11598200000000	0.00000000000000	0.00000000000000	0.00000000000000	0.00000000000000	0.00000000000000	0.00000000000000	0.00000000000000	26.76453400000000	0.00000000000000	0.00000000000000	0.00000000000000	0.00000000000000	
0.93833000000000	53.49046300000000	741.94453899999996	63.21112200000000	0.32104400000000	0.00000000000000	0.11599300000000	0.00000000000000	0.00000000000000	0.00000000000000	0.00000000000000	0.00000000000000	0.00000000000000	0.00000000000000	26.93298300000000	0.00000000000000	0.00000000000000	0.00000000000000	0.00000000000000	
0.93999800000000	52.86765400000000	744.37392699999998	63.45292900000000	0.32030800000000	0.00000000000000	0.11600400000000	0.00000000000000	0.00000000000000	0.00000000000000	0.00000000000000	0.00000000000000	0.00000000000000	0.00000000000000	27.09525200000000	0.00000000000000	0.00000000000000	0.00000000000000	0.00000000000000	
0.94166400000000	52.25373700000000	746.72111500000005	63.68597900000000	0.31958400000000	0.00000000000000	0.11601500000000	0.00000000000000	0.00000000000000	0.00000000000000	0.00000000000000	0.00000000000000	0.00000000000000	0.00000000000000	27.25094400000000	0.00000000000000	0.00000000000000	0.00000000000000	0.00000000000000	
0.94333300000000	51.64836500000000	748.98389699999996	63.90961600000000	0.31887000000000	0.00000000000000	0.11602700000000	0.00000000000000	0.00000000000000	0.00000000000000	0.00000000000000	0.00000000000000	0.00000000000000	0.00000000000000	27.39965200000000	0.00000000000000	0.00000000000000	0.00000000000000	0.00000000000000	
0.94499200000000	51.05113900000000	751.16013499999997	64.12316500000000	0.31816200000000	0.00000000000000	0.11604000000000	0.00000000000000	0.00000000000000	0.00000000000000	0.00000000000000	0.00000000000000	0.00000000000000	0.00000000000000	27.54096800000000	0.00000000000000	0.00000000000000	0.00000000000000	0.00000000000000	
0.94666100000000	50.46161300000000	753.24777700000004	64.32593199999999	0.31745900000000	0.00000000000000	0.11605300000000	0.00000000000000	0.00000000000000	0.00000000000000	0.00000000000000	0.00000000000000	0.00000000000000	0.00000000000000	27.67448200000000	0.00000000000000	0.00000000000000	0.00000000000000	0.00000000000000	
0.94833100000000	49.87929800000000	755.24486300000001	64.51721999999999	0.31675700000000	0.00000000000000	0.11606700000000	0.00000000000000	0.00000000000000	0.00000000000000	0.00000000000000	0.00000000000000	0.00000000000000	0.00000000000000	27.79978800000000	0.00000000000000	0.00000000000000	0.00000000000000	0.00000000000000	
0.95000100000000	49.30366800000000	757.14954499999999	64.69632300000001	0.31605500000000	0.00000000000000	0.11608200000000	0.00000000000000	0.00000000000000	0.00000000000000	0.00000000000000	0.00000000000000	0.00000000000000	0.00000000000000	27.91648500000000	0.00000000000000	0.00000000000000	0.00000000000000	0.00000000000000	
0.95165900000000	48.73417000000000	758.96009000000004	64.86254000000000	0.31534900000000	0.00000000000000	0.11609800000000	0.00000000000000	0.00000000000000	0.00000000000000	0.00000000000000	0.00000000000000	0.00000000000000	0.00000000000000	28.02418000000000	0.00000000000000	0.00000000000000	0.00000000000000	0.00000000000000	
0.95332600000000	48.17022400000000	760.67489100000000	65.01518000000000	0.31463700000000	0.00000000000000	0.11611500000000	0.00000000000000	0.00000000000000	0.00000000000000	0.00000000000000	0.00000000000000	0.00000000000000	0.00000000000000	28.12249600000000	0.00000000000000	0.00000000000000	0.00000000000000	0.00000000000000	
0.95499900000000	47.61123300000000	762.29248199999995	65.15356199999999	0.31391800000000	0.00000000000000	0.11613200000000	0.00000000000000	0.00000000000000	0.00000000000000	0.00000000000000	0.00000000000000	0.00000000000000	0.00000000000000	28.21107000000000	0.00000000000000	0.00000000000000	0.00000000000000	0.00000000000000	
0.95666700000000	47.05658700000000	763.81153900000004	65.27702900000000	0.31318900000000	0.00000000000000	0.11615200000000	0.00000000000000	0.00000000000000	0.00000000000000	0.00000000000000	0.00000000000000	0.00000000000000	0.00000000000000	28.28955700000000	0.00000000000000	0.00000000000000	0.00000000000000	0.00000000000000	
